<svg xmlns="http://www.w3.org/2000/svg" viewBox="0 0 1200 630" role="img" aria-label="DevStudio Tycoon referral share artwork">
  <defs>
    <linearGradient id="bg" x1="0" y1="0" x2="1" y2="1"><stop offset="0" stop-color="#05061a"/><stop offset="0.55" stop-color="#15105a"/><stop offset="1" stop-color="#060712"/></linearGradient>
    <linearGradient id="pink" x1="0" y1="0" x2="1" y2="1"><stop offset="0" stop-color="#ff3bbd"/><stop offset="1" stop-color="#7a1dff"/></linearGradient>
    <linearGradient id="gold" x1="0" y1="0" x2="0" y2="1"><stop offset="0" stop-color="#ffe66b"/><stop offset="1" stop-color="#ffb400"/></linearGradient>
    <filter id="shadow" x="-20%" y="-20%" width="140%" height="140%"><feDropShadow dx="6" dy="8" stdDeviation="0" flood-color="#05060d"/><feDropShadow dx="10" dy="12" stdDeviation="0" flood-color="#ff3bbd" flood-opacity=".65"/></filter>
    <pattern id="dots" width="18" height="18" patternUnits="userSpaceOnUse"><circle cx="3" cy="3" r="2" fill="#fff" opacity=".16"/></pattern>
  </defs>
  <rect width="1200" height="630" fill="url(#bg)"/>
  <g opacity=".9">
    <rect x="705" y="88" width="350" height="230" rx="12" fill="#0a0b28" stroke="#ff3bbd" stroke-width="8"/>
    <path d="M720 302h330" stroke="#1df7ff" stroke-width="6" opacity=".5"/>
    <path d="M755 270h22v-70h-22zm52 0h22v-110h-22zm52 0h22v-90h-22zm52 0h22v-135h-22zm52 0h22v-60h-22z" fill="#1df7ff" opacity=".65"/>
    <circle cx="820" cy="155" r="4" fill="#ffe04e"/><circle cx="880" cy="130" r="3" fill="#ff3bbd"/><circle cx="960" cy="172" r="4" fill="#1df7ff"/>
  </g>
  <path d="M125 330 190 95 348 225 578 80 640 252 795 155 742 346 1025 350 820 445 900 590 635 500 505 618 442 474 160 575 275 430Z" fill="url(#pink)" stroke="#05060d" stroke-width="14" filter="url(#shadow)"/>
  <path d="M125 330 190 95 348 225 578 80 640 252 795 155 742 346 1025 350 820 445 900 590 635 500 505 618 442 474 160 575 275 430Z" fill="url(#dots)"/>
  <rect x="246" y="26" width="285" height="82" rx="18" fill="#05060d" stroke="#fff0bb" stroke-width="6"/>
  <text x="388" y="68" text-anchor="middle" font-size="36" font-family="Impact, Arial Black, sans-serif" fill="#1df7ff" stroke="#05060d" stroke-width="2">DEVSTUDIO</text>
  <text x="388" y="101" text-anchor="middle" font-size="32" font-family="Impact, Arial Black, sans-serif" fill="#ff3bbd" stroke="#05060d" stroke-width="2">TYCOON</text>
  <g filter="url(#shadow)">
    <text x="86" y="250" font-size="114" font-family="Impact, Arial Black, sans-serif" fill="#fff0bb" stroke="#05060d" stroke-width="12">СДЕЛАЙ</text>
    <text x="70" y="395" font-size="168" font-family="Impact, Arial Black, sans-serif" fill="url(#gold)" stroke="#05060d" stroke-width="14">ИГРУ</text>
    <text x="160" y="500" font-size="88" font-family="Impact, Arial Black, sans-serif" fill="#ff3bbd" stroke="#05060d" stroke-width="10">ЛУЧШЕ</text>
    <text x="530" y="500" font-size="88" font-family="Impact, Arial Black, sans-serif" fill="#fff0bb" stroke="#05060d" stroke-width="10">МОЕЙ</text>
  </g>
  <g transform="translate(760 235)">
    <ellipse cx="160" cy="165" rx="130" ry="112" fill="#2a2552" stroke="#05060d" stroke-width="10"/>
    <path d="M60 90 88 18 122 92M205 92 238 18 266 92" fill="#2a2552" stroke="#05060d" stroke-width="10"/>
    <path d="M72 82 91 38 112 86M214 86 237 38 257 82" fill="#ff7abf"/>
    <circle cx="122" cy="150" r="24" fill="#ffe04e" stroke="#05060d" stroke-width="8"/>
    <path d="M190 142q36 0 52-28" fill="none" stroke="#fff0bb" stroke-width="10" stroke-linecap="round"/>
    <path d="M154 172q30 28 64 0" fill="none" stroke="#05060d" stroke-width="8" stroke-linecap="round"/>
    <path d="M174 165h28v24h-28z" fill="#ff3bbd"/>
    <path d="M110 202h170v85H86v-60q0-25 24-25z" fill="#15162d" stroke="#05060d" stroke-width="10"/>
    <rect x="72" y="238" width="190" height="82" rx="12" fill="#201a45" stroke="#05060d" stroke-width="10"/>
    <path d="M142 268h20v20h-20zm20 20h20v20h-20zm20-20h20v20h-20" fill="#1df7ff"/>
    <path d="M266 190q52-16 65 34" fill="none" stroke="#fff0bb" stroke-width="26" stroke-linecap="round"/>
  </g>
  <g>
    <rect x="38" y="70" width="150" height="120" rx="16" fill="#0a0b28" stroke="#9b4cff" stroke-width="6"/>
    <text x="112" y="110" text-anchor="middle" fill="#ff3bbd" font-size="22" font-family="Arial Black">❤ ФАНАТЫ</text><text x="112" y="158" text-anchor="middle" fill="#fff0bb" font-size="44" font-family="Arial Black">99K</text>
    <rect x="42" y="330" width="190" height="135" rx="18" fill="#0a0b28" stroke="#9b4cff" stroke-width="6"/><text x="137" y="374" text-anchor="middle" fill="#fff0bb" font-size="24" font-family="Arial Black">ИГРА В РАЗРАБОТКЕ</text><rect x="70" y="400" width="110" height="18" rx="9" fill="#1df7ff"/><text x="190" y="418" fill="#fff0bb" font-size="28" font-family="Arial Black">70%</text>
    <rect x="955" y="420" width="200" height="145" rx="18" fill="#0a0b28" stroke="#9b4cff" stroke-width="6"/><text x="1055" y="465" text-anchor="middle" fill="#fff0bb" font-size="26" font-family="Arial Black">СТУДИЯ LVL 42</text><rect x="990" y="485" width="120" height="16" rx="8" fill="#1df7ff"/><text x="980" y="535" fill="#fff0bb" font-size="22" font-family="Arial Black">&lt;/&gt; КОД</text>
  </g>
  <rect x="360" y="530" width="500" height="72" rx="26" fill="url(#gold)" stroke="#05060d" stroke-width="10" filter="url(#shadow)"/>
  <text x="610" y="584" text-anchor="middle" fill="#fff0bb" stroke="#05060d" stroke-width="8" font-size="62" font-family="Impact, Arial Black, sans-serif">ИГРАТЬ!</text>
  <g fill="#ffe04e"><path d="M45 42h12v28H45zM37 50h28v12H37z"/><path d="M1090 55h14v38h-14zM1078 67h38v14h-38z"/><path d="M1012 116h10v26h-10zM1004 124h26v10h-26z"/></g>
</svg>
